<?xml version="1.0" encoding="UTF-8"?>
<svg width="18px" height="18px" viewBox="0 0 18 18" version="1.1" xmlns="http://www.w3.org/2000/svg" xmlns:xlink="http://www.w3.org/1999/xlink">
    <!-- Generator: sketchtool 39.1 (31720) - http://www.bohemiancoding.com/sketch -->
    <title>FBD40A68-65C5-4276-BD1D-932455E4E267</title>
    <desc>Created with sketchtool.</desc>
    <defs></defs>
    <g id="Page-1" stroke="none" stroke-width="1" fill="none" fill-rule="evenodd">
        <g id="EC---ticket-shop-V5" transform="translate(-411.000000, -759.000000)" fill="#999999">
            <g id="Group-16" transform="translate(300.000000, 750.000000)">
                <g id="Icon" transform="translate(100.000000, 0.000000)">
                    <g id="noun_32118_cc" transform="translate(11.000000, 9.000000)">
                        <g id="Group">
                            <path d="M1.125,17.6332711 C0.837140625,17.6332711 0.549316406,17.5256462 0.329589844,17.3103963 C-0.109863281,16.8798965 -0.109863281,16.1824868 0.329589844,15.7519871 L3.70458984,12.4457487 C3.91552734,12.2391088 4.20173438,12.1228739 4.5,12.1228739 L12.0717773,12.1228739 L16.0642266,8.05248122 C16.4948906,7.61443908 17.2057148,7.60045645 17.6550469,8.02234624 C18.1021992,8.44423602 18.1164727,9.14164567 17.6858086,9.58075545 L13.3615898,13.9890732 C13.1495273,14.2043576 12.8573086,14.3270328 12.5507812,14.3270328 L4.96582031,14.3270328 L1.92041016,17.3103963 C1.70068359,17.5256462 1.41285938,17.6332711 1.125,17.6332711 L1.125,17.6332711 Z M14.8798828,14.0310556 L14.1723633,14.7521599 C13.8713203,15.0578148 13.4846016,15.2644547 13.0693359,15.362402 L14.933707,17.2888713 C15.1545234,17.5181038 15.4522617,17.6332711 15.75,17.6332711 C16.0279453,17.6332711 16.3059258,17.5331885 16.5234375,17.3308536 C16.9749844,16.9122012 16.9936523,16.2147915 16.566293,15.773512 L14.8798828,14.0310556 L14.8798828,14.0310556 Z M4.640625,2.06639896 C3.24207422,2.06639896 2.109375,3.1770884 2.109375,4.54607771 C2.109375,5.91506702 3.24207422,7.02575646 4.640625,7.02575646 C6.03917578,7.02575646 7.171875,5.91506702 7.171875,4.54607771 C7.171875,3.1770884 6.03917578,2.06639896 4.640625,2.06639896 L4.640625,2.06639896 Z M1.3595625,1.91572403 C1.19475,1.7542694 1.19422266,1.49383425 1.3595625,1.33237961 C1.524375,1.16878969 1.79131641,1.17092497 1.95612891,1.33237961 L2.58233203,1.94585902 C2.35821094,2.11482157 2.15880469,2.30964856 1.98576563,2.52920344 L1.3595625,1.91572403 L1.3595625,1.91572403 Z M1.30848047,4.9593575 L0.421875,4.9593575 C0.188964844,4.9593575 0,4.77531023 0,4.54607771 C0,4.31684518 0.188964844,4.13279792 0.421875,4.13279792 L1.30848047,4.13279792 C1.29033984,4.27055785 1.265625,4.40401278 1.265625,4.54607771 C1.265625,4.68814264 1.29033984,4.82159757 1.30848047,4.9593575 L1.30848047,4.9593575 Z M6.69948047,1.94585902 L7.32571875,1.33237961 C7.49053125,1.17092497 7.75638281,1.16878969 7.92119531,1.33237961 C8.08600781,1.49383425 8.08600781,1.7542694 7.92119531,1.91572403 L7.29492187,2.52920344 C7.12244531,2.30964856 6.92360156,2.11482157 6.69948047,1.94585902 L6.69948047,1.94585902 Z M4.21875,1.28182171 L4.21875,0.413279792 C4.21875,0.185114907 4.406625,0 4.640625,0 C4.874625,0 5.0625,0.185114907 5.0625,0.413279792 L5.0625,1.28182171 C4.9224375,1.26353408 4.78455469,1.23983937 4.640625,1.23983937 C4.49669531,1.23983937 4.3588125,1.26353408 4.21875,1.28182171 L4.21875,1.28182171 Z M7.92116016,7.17643138 C8.08597266,7.33788602 8.08815234,7.59832117 7.92116016,7.75977581 C7.75634766,7.92336573 7.49049609,7.92336573 7.32568359,7.75977581 L6.69948047,7.1462964 C6.92360156,6.97733384 7.12244531,6.78250686 7.29495703,6.56295197 L7.92116016,7.17643138 L7.92116016,7.17643138 Z M9.28125,4.54607771 C9.28125,4.77531023 9.09228516,4.9593575 8.859375,4.9593575 L7.97276953,4.9593575 C7.9914375,4.82159757 8.015625,4.68814264 8.015625,4.54607771 C8.015625,4.40401278 7.9914375,4.27055785 7.97276953,4.13279792 L8.859375,4.13279792 C9.09228516,4.13279792 9.28125,4.31684518 9.28125,4.54607771 L9.28125,4.54607771 Z M2.58233203,7.1462964 L1.95609375,7.75977581 C1.79128125,7.92336573 1.52433984,7.92336573 1.35952734,7.75977581 C1.1941875,7.59832117 1.1941875,7.33788602 1.35952734,7.17643138 L1.98576562,6.56295197 C2.15880469,6.7825413 2.35821094,6.97733384 2.58233203,7.1462964 L2.58233203,7.1462964 Z M5.0625,7.8103337 L5.0625,8.67887562 C5.0625,8.90810815 4.874625,9.09215542 4.640625,9.09215542 C4.406625,9.09215542 4.21875,8.90810815 4.21875,8.67887562 L4.21875,7.8103337 C4.3588125,7.82862133 4.49669531,7.85231604 4.640625,7.85231604 C4.78455469,7.85231604 4.9224375,7.82865577 5.0625,7.8103337 L5.0625,7.8103337 Z" id="icon_lounge"></path>
                        </g>
                    </g>
                </g>
            </g>
        </g>
    </g>
</svg>