<?xml version="1.0" encoding="UTF-8"?>
<svg width="22px" height="22px" viewBox="0 0 22 22" version="1.1" xmlns="http://www.w3.org/2000/svg" xmlns:xlink="http://www.w3.org/1999/xlink">
    <!-- Generator: sketchtool 39.1 (31720) - http://www.bohemiancoding.com/sketch -->
    <title>CAB9316C-0BC8-455D-B25D-896AFFAF94FE</title>
    <desc>Created with sketchtool.</desc>
    <defs></defs>
    <g id="Page-1" stroke="none" stroke-width="1" fill="none" fill-rule="evenodd">
        <g id="EC---ticket-shop-V5" transform="translate(-308.000000, -439.000000)" fill="#999999">
            <g id="Content" transform="translate(270.000000, 140.000000)">
                <g id="Ticket--Copy" transform="translate(0.000000, 121.000000)">
                    <g id="Icons" transform="translate(29.000000, 169.000000)">
                        <g id="Icon">
                            <path d="M22.9509159,16.54688 C22.4465561,16.54688 22.0380003,16.95102 22.0380003,17.45064 C22.0380003,17.95004 22.4467784,18.35286 22.9509159,18.35286 C23.4550534,18.35286 23.8631647,17.94982 23.8631647,17.45064 C23.8631647,16.95124 23.4548311,16.54688 22.9509159,16.54688 L22.9509159,16.54688 Z M16.4362503,16.59528 C15.9338911,16.59528 15.5244461,16.99942 15.5244461,17.4975 C15.5244461,17.99646 15.9338911,18.40104 16.4362503,18.40104 C16.9417215,18.40104 17.3491659,17.99646 17.3491659,17.4975 C17.3493882,16.99942 16.9419438,16.59528 16.4362503,16.59528 L16.4362503,16.59528 Z M30.2469057,26.54742 L30.2469057,11.27898 L30.8839684,11.27898 L30.8839684,9 L9.01667121,9 L9.01667121,11.27898 L9.78932638,11.27898 L9.78932638,22.74582 L9.78865953,22.74714 L9.78932638,22.7478 L9.78932638,26.54742 L9,26.54742 L9,31 L31,31 L31,26.54742 L30.2469057,26.54742 L30.2469057,26.54742 Z M30.5269821,10.92698 L28.9961202,10.92698 L30.5269821,9.41338 L30.5269821,10.92698 L30.5269821,10.92698 Z M30.2395704,9.35222 L28.6475807,10.92698 L28.6444687,10.92698 L27.0535904,9.35222 L30.2395704,9.35222 L30.2395704,9.35222 Z M28.2990412,11.54056 L29.8790276,13.10432 L28.2990412,14.66962 L28.2990412,11.54056 L28.2990412,11.54056 Z M26.3991897,9.35222 L24.8067554,10.92698 L24.7958635,10.92698 L23.2029847,9.35222 L26.3991897,9.35222 L26.3991897,9.35222 Z M22.8528892,9.35222 L24.4442121,10.92698 L21.2277793,10.92698 L22.8188799,9.35222 L22.8528892,9.35222 L22.8528892,9.35222 Z M22.4696735,9.35222 L20.8792398,10.92698 L20.8641246,10.92698 L19.2748022,9.35222 L22.4696735,9.35222 L22.4696735,9.35222 Z M20.5155851,10.92698 L20.132814,10.92698 L19.9932204,10.45266 C19.9825508,10.41812 19.9585442,10.39348 19.9443181,10.36048 L20.5155851,10.92698 L20.5155851,10.92698 Z M18.926485,9.35222 L19.4906389,9.91058 C19.3121457,9.83644 19.1120912,9.80828 18.9118143,9.86592 C18.452578,9.9988 18.1891728,10.4718 18.3185414,10.92698 L17.3187132,10.92698 L18.9104806,9.35222 L18.926485,9.35222 L18.926485,9.35222 Z M18.5617189,9.35222 L16.982177,10.91246 L15.4055247,9.35222 L18.5617189,9.35222 L18.5617189,9.35222 Z M15.0574298,9.35222 L16.6471967,10.92698 L15.0923282,10.92698 L14.6971093,10.54616 C14.4939428,10.34948 14.2200903,10.28678 13.9606862,10.32616 L14.9445101,9.35222 L15.0574298,9.35222 L15.0574298,9.35222 Z M14.5961929,9.35222 L13.0324331,10.8997 L11.4695624,9.35222 L14.5961929,9.35222 L14.5961929,9.35222 Z M9.37387974,9.35222 L10.7878209,9.35222 L9.37387974,10.75362 L9.37387974,9.35222 L9.37387974,9.35222 Z M9.54837178,10.92698 L11.1290251,9.36102 L12.7096784,10.92698 L9.54837178,10.92698 L9.54837178,10.92698 Z M10.1456458,11.53968 L11.7262991,13.10432 L10.1456458,14.66808 L10.1456458,11.53968 L10.1456458,11.53968 Z M11.7363018,26.54742 L10.2312247,26.54742 L11.7363018,25.05604 L11.7363018,26.54742 L11.7363018,26.54742 Z M11.7363018,24.7113 L10.1456458,26.2854 L10.1456458,23.10112 L11.7360795,24.67434 L11.7360795,24.7113 L11.7363018,24.7113 Z M11.7363018,24.32762 L10.1458681,22.75352 L10.1458681,22.74032 L11.7363018,21.16666 L11.7363018,24.32762 L11.7363018,24.32762 Z M11.7363018,20.81884 L10.1456458,22.3936 L10.1456458,19.23176 L11.7360795,20.80608 L11.7360795,20.81884 L11.7363018,20.81884 Z M11.7363018,20.45914 L10.1589828,18.89956 L11.7363018,17.33646 L11.7363018,20.45914 L11.7363018,20.45914 Z M11.7363018,16.99106 L10.1458681,18.56736 L10.1458681,15.30762 L11.7363018,16.8826 L11.7363018,16.99106 L11.7363018,16.99106 Z M11.7363018,16.5361 L10.1723197,14.98796 L11.7363018,13.44136 L11.7363018,16.5361 L11.7363018,16.5361 Z M11.7363018,12.7675 L10.3208047,11.3672 L11.7360795,11.3672 L11.7360795,12.7675 L11.7363018,12.7675 Z M22.7806472,26.54742 L22.9747002,24.07748 L23.0936215,22.8864 C23.1011791,22.88794 23.1078476,22.89146 23.1165166,22.89146 L23.135633,22.89146 C23.1414123,22.89146 23.1447465,22.88816 23.1507482,22.88816 L23.2718923,24.10762 L23.4783931,26.5472 L22.7806472,26.5472 L22.7806472,26.54742 Z M27.9427218,26.54742 L24.2001455,26.54742 L24.2350439,24.04514 L24.0445475,22.123 C24.0587736,22.05524 24.0836693,21.99078 24.0823356,21.91884 L24.0485486,20.19734 L24.482667,20.6105 L24.6055894,22.43232 L25.1855253,22.42374 L25.2508765,20.2805 L23.7751407,18.87954 C23.5939802,18.68704 23.3367989,18.56604 23.0496095,18.57154 C22.8146565,18.57638 22.604377,18.66636 22.4389985,18.8076 L22.4381094,18.80694 L22.4198822,18.8241 C22.3983208,18.8428 22.3763148,18.8626 22.3567539,18.88394 L21.3120245,19.8735 L20.2564033,18.75194 L19.8080588,19.11626 L21.2437837,20.99572 L22.115577,20.16984 L22.1513645,21.95668 C22.1524759,22.02796 22.1795944,22.09132 22.1962656,22.15864 L22.0139937,24.01412 L22.0315541,26.54742 L15.7954088,26.54742 L15.9787922,24.07792 L16.0974912,22.88794 C16.105938,22.88838 16.1128288,22.89256 16.1206087,22.89256 L16.1395027,22.89256 C16.2235256,22.89014 16.3033251,22.87518 16.3804573,22.85384 L16.8559203,24.00422 L16.6627565,26.36262 L17.3687268,26.46426 L17.8501915,23.88344 L17.0782031,22.01762 C17.0810928,21.9844 17.0870945,21.95184 17.0864276,21.91818 L17.0513069,20.20922 L17.9751144,21.08592 L19.1987815,18.78208 L18.6508543,18.47804 L17.7903974,19.84996 L16.8288018,18.93872 C16.6480858,18.71102 16.3682317,18.56538 16.0534792,18.57154 C15.7762925,18.57704 15.5302254,18.69958 15.3588453,18.88724 L13.7713013,20.39116 L14.7233387,22.37314 L15.1988017,22.17932 L15.0176412,24.01412 L15.0243097,26.54742 L12.0939549,26.54742 L12.0939549,11.27898 L13.2389339,11.27898 C13.2640518,11.46334 13.3358492,11.64374 13.481889,11.78366 L15.1478989,13.3868 L16.3637861,12.14974 L15.4584281,11.27898 L18.4199024,11.27898 L18.9696079,13.14458 L20.64362,12.66124 L20.2363978,11.27876 L24.8876663,11.27876 L24.0612187,12.45884 L25.4940539,13.44224 L26.8184151,11.55112 C26.8788761,11.46642 26.9131076,11.37314 26.9380033,11.27876 L27.9427218,11.27876 L27.9427218,26.54742 L27.9427218,26.54742 Z M15.1521223,21.76902 L14.6804381,20.58872 L15.1194467,20.17248 L15.1521223,21.76902 L15.1521223,21.76902 Z M26.9602316,10.92698 C26.9251109,10.70236 26.802633,10.49116 26.5996888,10.35168 C26.3669587,10.19196 26.0884383,10.17326 25.8394815,10.25312 L26.72639,9.37554 L28.2930395,10.92698 L26.9602316,10.92698 L26.9602316,10.92698 Z M29.8899195,26.54742 L28.3848423,26.54742 L29.8899195,25.0556 L29.8899195,26.54742 L29.8899195,26.54742 Z M29.8899195,24.71042 L28.2992634,26.28408 L28.2992634,23.10112 L29.8899195,24.67566 L29.8899195,24.71042 L29.8899195,24.71042 Z M29.8899195,24.32762 L28.2992634,22.75308 L28.2992634,22.74032 L29.8899195,21.16666 L29.8899195,24.32762 L29.8899195,24.32762 Z M29.8899195,20.81884 L28.2992634,22.39514 L28.2992634,19.23308 L29.8899195,20.80608 L29.8899195,20.81884 L29.8899195,20.81884 Z M29.8899195,20.4587 L28.3126004,18.89824 L29.8899195,17.33712 L29.8899195,20.4587 L29.8899195,20.4587 Z M29.8899195,16.99172 L28.2992634,18.56604 L28.2992634,15.3063 L29.8899195,16.88128 L29.8899195,16.99172 L29.8899195,16.99172 Z M29.8899195,16.53324 L28.3279379,14.98796 L29.8899195,13.44136 L29.8899195,16.53324 L29.8899195,16.53324 Z M29.8899195,12.76596 L28.4730886,11.3672 L29.8899195,11.3672 L29.8899195,12.76596 L29.8899195,12.76596 Z" id="icon_festival"></path>
                        </g>
                    </g>
                </g>
            </g>
        </g>
    </g>
</svg>