<?xml version="1.0" encoding="UTF-8"?>
<svg width="20px" height="20px" viewBox="0 0 20 20" version="1.1" xmlns="http://www.w3.org/2000/svg" xmlns:xlink="http://www.w3.org/1999/xlink">
    <!-- Generator: sketchtool 39.1 (31720) - http://www.bohemiancoding.com/sketch -->
    <title>409A0036-7F84-4306-8D06-A2E2F07D8E89</title>
    <desc>Created with sketchtool.</desc>
    <defs></defs>
    <g id="Page-1" stroke="none" stroke-width="1" fill="none" fill-rule="evenodd">
        <g id="EC---ticket-shop-V5" transform="translate(-140.000000, -70.000000)" fill="#333333">
            <g id="Subnav" transform="translate(-3.000000, 44.000000)">
                <g id="Access-passes" transform="translate(143.000000, 26.000000)">
                    <g id="icon_ticket">
                        <path d="M18.7695238,5.4352381 C19.1419048,5.06380952 19.1419048,4.46095238 18.7695238,4.08857143 L14.96,0.279047619 C14.587619,-0.0933333333 13.9857143,-0.0933333333 13.6133333,0.279047619 C13.0685714,0.823809524 11.6952381,0.823809524 11.1504762,0.279047619 C10.7780952,-0.0933333333 10.1761905,-0.0933333333 9.80380952,0.279047619 L0.28,9.80285714 C-0.0923809524,10.1752381 -0.0923809524,10.7771429 0.28,11.1495238 C0.855238095,11.7247619 0.855238095,13.0380952 0.28,13.612381 C-0.0923809524,13.9847619 -0.0923809524,14.5866667 0.28,14.9590476 L4.08952381,18.7685714 C4.46190476,19.1409524 5.06380952,19.1409524 5.43619048,18.7685714 C5.98095238,18.2238095 7.35428571,18.2238095 7.89904762,18.7685714 C8.0847619,18.9542857 8.32857143,19.047619 8.57142857,19.047619 C8.81428571,19.047619 9.05904762,18.9542857 9.2447619,18.7685714 L18.7685714,9.2447619 C19.1409524,8.87333333 19.1409524,8.27047619 18.7685714,7.89809524 C18.1942857,7.32380952 18.1942857,6.01047619 18.7695238,5.4352381 L18.7695238,5.4352381 Z M16.8552381,8.46571429 L8.46571429,16.8542857 C7.40952381,16.3038095 5.9247619,16.3038095 4.86857143,16.8542857 L2.19333333,14.18 C2.76285714,13.0914286 2.76285714,11.6704762 2.19333333,10.5819048 L10.5828571,2.19238095 C11.6390476,2.74380952 13.1238095,2.74380952 14.18,2.19238095 L16.8552381,4.86761905 C16.2857143,5.95619048 16.2857143,7.37714286 16.8552381,8.46571429 L16.8552381,8.46571429 Z" id="Shape"></path>
                        <path d="M12.1028571,4.08857143 C11.7304762,3.71619048 11.1285714,3.71619048 10.7561905,4.08857143 L4.08952381,10.7552381 C3.71714286,11.127619 3.71714286,11.7295238 4.08952381,12.1019048 L6.94666667,14.9590476 C7.13238095,15.1447619 7.37619048,15.2380952 7.61904762,15.2380952 C7.86190476,15.2380952 8.10666667,15.1447619 8.29238095,14.9590476 L14.9590476,8.29238095 C15.3314286,7.92095238 15.3314286,7.31809524 14.9590476,6.94571429 L12.1028571,4.08857143 L12.1028571,4.08857143 Z M7.61904762,12.9390476 L6.10952381,11.4285714 L8.57142857,8.96571429 L10.0819048,10.4761905 L7.61904762,12.9390476 L7.61904762,12.9390476 Z M11.4285714,9.12952381 L9.91904762,7.61904762 L11.4285714,6.10857143 L12.9390476,7.61904762 L11.4285714,9.12952381 L11.4285714,9.12952381 Z" id="Shape"></path>
                    </g>
                </g>
            </g>
        </g>
    </g>
</svg>