<?xml version="1.0" encoding="UTF-8"?>
<svg width="18px" height="18px" viewBox="0 0 18 18" version="1.1" xmlns="http://www.w3.org/2000/svg" xmlns:xlink="http://www.w3.org/1999/xlink">
    <!-- Generator: sketchtool 39.1 (31720) - http://www.bohemiancoding.com/sketch -->
    <title>2DABC5B2-2A40-4529-B432-A76DE10E676E</title>
    <desc>Created with sketchtool.</desc>
    <defs></defs>
    <g id="Page-1" stroke="none" stroke-width="1" fill="none" fill-rule="evenodd">
        <g id="EC---ticket-shop-V5" transform="translate(-360.000000, -441.000000)" fill="#999999">
            <g id="Content" transform="translate(270.000000, 140.000000)">
                <g id="Ticket--Copy" transform="translate(0.000000, 121.000000)">
                    <g id="Icons" transform="translate(29.000000, 169.000000)">
                        <g id="Icon" transform="translate(50.000000, 0.000000)">
                            <g id="noun_363063_cc" transform="translate(11.000000, 11.000000)">
                                <g id="Group">
                                    <g id="icon_toilet">
                                        <ellipse id="Oval" cx="14.1724138" cy="1.86428571" rx="1.73793103" ry="1.8"></ellipse>
                                        <path d="M15.8896552,3.94285714 L12.4758621,3.94285714 C11.4,3.94285714 10.5724138,4.82142857 10.5724138,6 L10.5724138,10.0714286 C10.5724138,10.5 10.9034483,10.8642857 11.337931,10.8642857 C11.7724138,10.8642857 12.1034483,10.5214286 12.1034483,10.0714286 L12.1034483,10.0714286 L12.1034483,10.0714286 L12.1034483,5.91428571 C12.1241379,5.85 12.1655172,5.80714286 12.2275862,5.80714286 C12.2896552,5.80714286 12.3517241,5.87142857 12.3517241,5.93571429 L12.3517241,5.93571429 L12.3517241,17.0357143 C12.3517241,17.4642857 12.6827586,17.8285714 13.1172414,17.8285714 C13.5310345,17.8285714 13.8827586,17.4857143 13.8827586,17.0357143 L13.8827586,11.5285714 L14.5241379,11.5285714 L14.5241379,17.0142857 C14.5241379,17.4428571 14.8551724,17.8071429 15.2896552,17.8071429 C15.7034483,17.8071429 16.0551724,17.4642857 16.0551724,17.0142857 L16.0551724,5.91428571 L16.0551724,5.91428571 C16.0551724,5.85 16.1172414,5.78571429 16.1793103,5.78571429 C16.2413793,5.78571429 16.2827586,5.82857143 16.3034483,5.89285714 L16.3034483,10.05 L16.3034483,10.05 L16.3034483,10.05 C16.3034483,10.4785714 16.6344828,10.8428571 17.0689655,10.8428571 C17.5034483,10.8428571 17.8344828,10.5 17.8344828,10.05 L17.8344828,5.97857143 C17.7724138,4.82142857 16.9655172,3.94285714 15.8896552,3.94285714 L15.8896552,3.94285714 Z" id="Shape"></path>
                                        <ellipse id="Oval" cx="3.97241379" cy="1.86428571" rx="1.73793103" ry="1.8"></ellipse>
                                        <path d="M7.26206897,5.4 C6.95172414,3.92142857 5.68965517,3.92142857 5.00689655,3.92142857 L3,3.92142857 C2.31724138,3.92142857 1.05517241,3.92142857 0.744827586,5.4 C0.620689655,6 0.0827586207,9.53571429 0.0206896552,9.94285714 C-0.0413793103,10.3714286 0.227586207,10.7785714 0.64137931,10.8428571 C1.05517241,10.9071429 1.44827586,10.6285714 1.51034483,10.2 C1.65517241,9.27857143 2.00689655,6.98571429 2.17241379,6.08571429 C2.19310345,6.02142857 2.23448276,5.97857143 2.29655172,5.97857143 C2.35862069,5.97857143 2.42068966,6.04285714 2.42068966,6.10714286 L1.3862069,12.8571429 L2.17241379,12.8571429 L2.17241379,17.0142857 C2.17241379,17.4428571 2.50344828,17.8071429 2.93793103,17.8071429 C3.37241379,17.8071429 3.70344828,17.4642857 3.70344828,17.0142857 L3.70344828,12.8357143 L4.34482759,12.8357143 L4.34482759,16.9928571 C4.34482759,17.4214286 4.67586207,17.7857143 5.11034483,17.7857143 C5.54482759,17.7857143 5.87586207,17.4428571 5.87586207,16.9928571 L5.87586207,12.8357143 L6.62068966,12.8357143 L5.5862069,6.08571429 C5.5862069,6.02142857 5.64827586,5.95714286 5.71034483,5.95714286 C5.77241379,5.95714286 5.8137931,6 5.83448276,6.06428571 C6,6.96428571 6.35172414,9.25714286 6.49655172,10.1785714 C6.55862069,10.5642857 6.86896552,10.8428571 7.24137931,10.8428571 L7.36551724,10.8428571 C7.77931034,10.7785714 8.04827586,10.3714286 7.9862069,9.94285714 C7.92413793,9.53571429 7.3862069,6 7.26206897,5.4 L7.26206897,5.4 Z" id="Shape"></path>
                                        <rect id="Rectangle-path" x="8.85517241" y="0.0642857143" width="0.703448276" height="17.7214286"></rect>
                                    </g>
                                </g>
                            </g>
                        </g>
                    </g>
                </g>
            </g>
        </g>
    </g>
</svg>