<?xml version="1.0" encoding="UTF-8"?>
<svg width="20px" height="19px" viewBox="0 0 20 19" version="1.1" xmlns="http://www.w3.org/2000/svg" xmlns:xlink="http://www.w3.org/1999/xlink">
    <!-- Generator: sketchtool 39.1 (31720) - http://www.bohemiancoding.com/sketch -->
    <title>2C582316-966E-4767-8F45-E789733520FF</title>
    <desc>Created with sketchtool.</desc>
    <defs></defs>
    <g id="Page-1" stroke="none" stroke-width="1" fill="none" fill-rule="evenodd">
        <g id="EC---ticket-shop-V5" transform="translate(-390.000000, -70.000000)" fill="#C1C1C1">
            <g id="Subnav" transform="translate(-3.000000, 44.000000)">
                <g id="Goodies" transform="translate(373.000000, 6.000000)">
                    <g id="icon_tent_plus" transform="translate(20.000000, 20.000000)">
                        <path d="M16.25,2.25 L14,2.25 L14,3.75 L16.25,3.75 L16.25,6 L17.75,6 L17.75,3.75 L20,3.75 L20,2.25 L17.75,2.25 L17.75,-4.5924255e-17 L16.25,4.5924255e-17 L16.25,2.25 Z" id="Combined-Shape"></path>
                        <path d="M20,16.852803 L20,18.7991764 L0,18.7991764 L0,16.852803 L0.732582753,16.852803 L8.80234377,5.60719265 L7.02886769,3.13546122 L8.60907445,2 L10,3.93869717 L11.3909255,2.00030705 L12.9699052,3.13576827 L11.1964291,5.6074997 L19.2661901,16.8531101 L20,16.8531101 L20,16.852803 Z M16.8721048,16.852803 L10,7.27599517 L3.1266681,16.852803 L9.01739424,16.852803 L9.01739424,12.9511519 L10.9620517,12.9511519 L10.9620517,16.852803 L16.8721048,16.852803 L16.8721048,16.852803 Z" id="Shape"></path>
                    </g>
                </g>
            </g>
        </g>
    </g>
</svg>