<?xml version="1.0" encoding="UTF-8"?>
<svg width="30px" height="30px" viewBox="0 0 30 30" version="1.1" xmlns="http://www.w3.org/2000/svg" xmlns:xlink="http://www.w3.org/1999/xlink">
    <!-- Generator: Sketch 40.3 (33839) - http://www.bohemiancoding.com/sketch -->
    <title>Icon ticket@1x</title>
    <desc>Created with Sketch.</desc>
    <defs></defs>
    <g id="Page-1" stroke="none" stroke-width="1" fill="none" fill-rule="evenodd">
        <g id="iPhone-7" transform="translate(-289.000000, -26.000000)">
            <g id="Icon-ticket" transform="translate(289.000000, 26.000000)">
                <rect id="Rectangle-3" fill="#333333" x="0" y="0" width="30" height="30" rx="3"></rect>
                <g id="leisure-ticket-3" transform="translate(5.000000, 5.000000)">
                    <g id="Group">
                        <g id="Frame_-_24px">
                            <rect id="Rectangle-path" x="0.000800000002" y="0.0016" width="19.2" height="19.2"></rect>
                        </g>
                        <g id="Filled_Icons" transform="translate(1.600000, 1.600000)" fill="#F6F6F6">
                            <path d="M15.7664,4.5656 C16.0792,4.2536 16.0792,3.7472 15.7664,3.4352 L12.5664,0.2352 C12.2536,-0.0776 11.748,-0.0776 11.4352,0.2352 C10.9776,0.6928 9.824,0.6928 9.3664,0.2352 C9.0536,-0.0776 8.548,-0.0776 8.2352,0.2352 L0.2352,8.2352 C-0.0776,8.548 -0.0776,9.0536 0.2352,9.3656 C0.7184,9.8488 0.7184,10.952 0.2352,11.4344 C-0.0776,11.7472 -0.0776,12.2528 0.2352,12.5648 L3.4352,15.7648 C3.748,16.0776 4.2536,16.0776 4.5664,15.7648 C5.024,15.3072 6.1776,15.3072 6.6352,15.7648 C6.7912,15.9216 6.996,16 7.2,16 C7.4048,16 7.6096,15.9216 7.7656,15.7648 L15.7656,7.7648 C16.0784,7.4528 16.0784,6.9464 15.7656,6.6344 C15.2832,6.152 15.2832,5.0488 15.7664,4.5656 L15.7664,4.5656 Z M6.9664,12.5648 C6.8096,12.7216 6.6048,12.8 6.4,12.8 C6.1952,12.8 5.9904,12.7216 5.8344,12.5648 L3.4344,10.1648 C3.1216,9.8528 3.1216,9.3464 3.4344,9.0344 L7.0344,5.4344 L10.5656,8.9648 L6.9664,12.5648 L6.9664,12.5648 Z M12.5664,6.9656 L11.3664,8.1656 L7.8352,4.6352 L9.0352,3.4352 C9.348,3.1224 9.8536,3.1224 10.1664,3.4352 L12.5664,5.8352 C12.8784,6.1472 12.8784,6.6528 12.5664,6.9656 L12.5664,6.9656 Z" id="Shape"></path>
                        </g>
                    </g>
                </g>
            </g>
        </g>
    </g>
</svg>