<?xml version="1.0" encoding="UTF-8"?>
<svg width="20px" height="16px" viewBox="0 0 20 16" version="1.1" xmlns="http://www.w3.org/2000/svg" xmlns:xlink="http://www.w3.org/1999/xlink">
    <!-- Generator: sketchtool 39.1 (31720) - http://www.bohemiancoding.com/sketch -->
    <title>416182CF-E300-4D81-8A61-9E41FAE70811</title>
    <desc>Created with sketchtool.</desc>
    <defs></defs>
    <g id="Page-1" stroke="none" stroke-width="1" fill="none" fill-rule="evenodd" fill-opacity="0.3">
        <g id="EC---ticket-shop-V5" transform="translate(-620.000000, -72.000000)" fill="#333333">
            <g id="Subnav" transform="translate(-3.000000, 44.000000)">
                <g id="Goodies-Copy" transform="translate(623.000000, 26.000000)">
                    <g id="icon_goodies" transform="translate(0.000000, 2.000000)">
                        <path d="M19.6,3.2 L15.6,0.2 C15.427,0.07 15.217,0 15,0 L5,0 C4.783,0 4.573,0.07 4.4,0.2 L0.4,3.2 C0.014,3.491 -0.11,4.016 0.105,4.447 L2.105,8.447 C2.353,8.942 2.952,9.143 3.447,8.894 L4,8.619 L4,15 C4,15.553 4.447,16 5,16 L15,16 C15.553,16 16,15.553 16,15 L16,8.619 L16.553,8.894 C17.048,9.142 17.649,8.941 17.895,8.447 L19.895,4.447 C20.11,4.016 19.986,3.491 19.6,3.2 L19.6,3.2 Z M11,2 C11,2.551 10.551,3 10,3 C9.449,3 9,2.551 9,2 L11,2 L11,2 Z M16.553,6.659 L15.448,6.106 C15.138,5.951 14.77,5.967 14.475,6.15 C14.18,6.332 14,6.653 14,7 L14,14 L6,14 L6,7 C6,6.653 5.82,6.332 5.525,6.15 C5.23,5.967 4.862,5.951 4.553,6.106 L3.448,6.659 L2.268,4.299 L5.334,2 L7,2 C7,3.654 8.346,5 10,5 C11.654,5 13,3.654 13,2 L14.666,2 L17.732,4.299 L16.553,6.659 L16.553,6.659 Z" id="Shape"></path>
                    </g>
                </g>
            </g>
        </g>
    </g>
</svg>