<?xml version="1.0" encoding="UTF-8"?>
<svg width="17px" height="21px" viewBox="0 0 17 21" version="1.1" xmlns="http://www.w3.org/2000/svg" xmlns:xlink="http://www.w3.org/1999/xlink">
    <!-- Generator: sketchtool 39.1 (31720) - http://www.bohemiancoding.com/sketch -->
    <title>B8A2E750-D1F5-4595-B11E-782FC75B73D2</title>
    <desc>Created with sketchtool.</desc>
    <defs></defs>
    <g id="Page-1" stroke="none" stroke-width="1" fill="none" fill-rule="evenodd">
        <g id="EC---ticket-shop-V5" transform="translate(-460.000000, -760.000000)" fill="#999999">
            <g id="Group-16" transform="translate(300.000000, 750.000000)">
                <g id="Icon" transform="translate(150.000000, 0.000000)">
                    <g id="noun_649281_cc" transform="translate(10.000000, 10.000000)">
                        <g id="Group">
                            <g id="icon_showers">
                                <path d="M14.1597561,0 L5.6804878,0 C4.64390244,0 3.79390244,0.861 3.79390244,1.911 L3.79390244,3.822 L5.6804878,3.822 L5.6804878,1.911 L14.1597561,1.911 C14.6780488,1.911 15.0926829,2.331 15.0926829,2.856 L15.0926829,16.212 L14.1597561,16.212 L14.1597561,15.267 L12.2731707,15.267 L12.2731707,19.089 L14.1597561,19.089 L14.1597561,18.144 L15.0926829,18.144 L15.0926829,21 L16.9792683,21 L16.9792683,2.856 C16.9792683,1.281 15.7146341,0 14.1597561,0 L14.1597561,0 Z" id="Shape"></path>
                                <ellipse id="Oval" cx="4.72682927" cy="6.678" rx="0.932926829" ry="0.945"></ellipse>
                                <ellipse id="Oval" cx="2.8402439" cy="9.072" rx="0.932926829" ry="0.945"></ellipse>
                                <ellipse id="Oval" cx="6.61341463" cy="9.072" rx="0.932926829" ry="0.945"></ellipse>
                                <ellipse id="Oval" cx="4.72682927" cy="11.445" rx="0.932926829" ry="0.945"></ellipse>
                                <ellipse id="Oval" cx="0.953658537" cy="11.445" rx="0.932926829" ry="0.945"></ellipse>
                                <ellipse id="Oval" cx="8.5" cy="11.445" rx="0.932926829" ry="0.945"></ellipse>
                            </g>
                        </g>
                    </g>
                </g>
            </g>
        </g>
    </g>
</svg>