<?xml version="1.0" encoding="UTF-8"?>
<svg width="30px" height="30px" viewBox="0 0 30 30" version="1.1" xmlns="http://www.w3.org/2000/svg" xmlns:xlink="http://www.w3.org/1999/xlink">
    <!-- Generator: Sketch 40.3 (33839) - http://www.bohemiancoding.com/sketch -->
    <title>Group 3@1x</title>
    <desc>Created with Sketch.</desc>
    <defs></defs>
    <g id="Page-1" stroke="none" stroke-width="1" fill="none" fill-rule="evenodd">
        <g id="EC---ticket-shop-V11-Copy" transform="translate(-1140.000000, -89.000000)">
            <g id="Content" transform="translate(269.000000, 84.000000)">
                <g id="Title">
                    <g id="Group-3" transform="translate(871.000000, 5.000000)">
                        <rect id="Rectangle-3" fill="#FEE234" x="0" y="0" width="30" height="30" rx="3"></rect>
                        <g id="t-shirt" transform="translate(5.000000, 4.000000)">
                            <g id="Group">
                                <g id="Frame_-_24px">
                                    <rect id="Rectangle-path" x="0.000800000002" y="0.0016" width="19.2008" height="19.2"></rect>
                                </g>
                                <g id="Filled_Icons" transform="translate(2.600000, 4.200000)" fill="#333333">
                                    <path d="M15.68,2.56 L12.48,0.16 C12.3416,0.056 12.1736,0 12,0 L4,0 C3.8264,0 3.6584,0.056 3.52,0.16 L0.32,2.56 C-0.0192,2.8152 -0.1016,3.2904 0.1344,3.644 L1.7344,6.044 C1.9576,6.38 2.3968,6.4952 2.7576,6.316 L3.2,6.0952 L3.2,12 C3.2,12.4424 3.5576,12.8 4,12.8 L12,12.8 C12.4424,12.8 12.8,12.4424 12.8,12 L12.8,6.0952 L13.2424,6.316 C13.6032,6.496 14.0424,6.38 14.2656,6.044 L15.8656,3.644 C16.1016,3.2904 16.0192,2.8152 15.68,2.56 L15.68,2.56 Z M8,2.4 C7.1168,2.4 6.4,1.6832 6.4,0.8 L9.6,0.8 C9.6,1.6832 8.8832,2.4 8,2.4 L8,2.4 Z" id="Shape"></path>
                                </g>
                            </g>
                        </g>
                    </g>
                </g>
            </g>
        </g>
    </g>
</svg>