<?xml version="1.0" standalone="no"?>
<!-- Generator: Adobe Fireworks 10, Export SVG Extension by Aaron Beall (http://fireworks.abeall.com) . Version: 0.6.1  -->
<!DOCTYPE svg PUBLIC "-//W3C//DTD SVG 1.1//EN" "http://www.w3.org/Graphics/SVG/1.1/DTD/svg11.dtd">
<svg id="Untitled-Page%201" viewBox="0 0 26 20" style="background-color:#ffffff00" version="1.1"
	xmlns="http://www.w3.org/2000/svg" xmlns:xlink="http://www.w3.org/1999/xlink" xml:space="preserve"
	x="0px" y="0px" width="26px" height="20px"
>
	<g id="Layer%201">
		<g>
			<path d="M 1 1 L 3.5 10 L 17.5 10 L 20 0.5 L 25 0.5 " stroke="#fff734" stroke-width="2" fill="none"/>
			<path id="Ellipse" d="M 4 16.5 C 4 15.6716 4.6716 15 5.5 15 C 6.3284 15 7 15.6716 7 16.5 C 7 17.3284 6.3284 18 5.5 18 C 4.6716 18 4 17.3284 4 16.5 Z" stroke="#fff734" stroke-width="2" fill="none"/>
			<path id="Ellipse2" d="M 14 16.5 C 14 15.6716 14.6716 15 15.5 15 C 16.3284 15 17 15.6716 17 16.5 C 17 17.3284 16.3284 18 15.5 18 C 14.6716 18 14 17.3284 14 16.5 Z" stroke="#fff734" stroke-width="2" fill="none"/>
		</g>
	</g>
</svg>