<?xml version="1.0" encoding="UTF-8"?>
<svg width="50px" height="71px" viewBox="0 0 50 71" version="1.1" xmlns="http://www.w3.org/2000/svg" xmlns:xlink="http://www.w3.org/1999/xlink">
    <!-- Generator: sketchtool 40.3 (33839) - http://www.bohemiancoding.com/sketch -->
    <title>6CDD74DB-3B1F-4B2F-B4AF-9BC23E06EC8C</title>
    <desc>Created with sketchtool.</desc>
    <defs></defs>
    <g id="Page-1" stroke="none" stroke-width="1" fill="none" fill-rule="evenodd">
        <g id="EC---ticket-shop-V6" transform="translate(-286.000000, -2062.000000)">
            <g id="Add-Ons" transform="translate(0.000000, 2062.000000)">
                <g id="Add-ons-header" transform="translate(271.000000, 0.000000)">
                    <g id="Icon" transform="translate(15.000000, 0.000000)">
                        <g id="icon_ribbon_tent">
                            <path d="M0,4.24987387 L0,67.4952069 C0,70.2922494 3.70734908,71.959452 6.47965879,70.4024777 L22.6870079,61.3224235 C24.097769,60.537047 25.9186352,60.537047 27.3129921,61.3224235 L43.5203412,70.4024777 C46.2926509,71.9456735 50,70.2784708 50,67.4952069 L50,4.24987387 L50,1.0658141e-13 L0,1.0658141e-13 L0,4.24987387 Z" id="Ribbon" fill="#000000" opacity="1"></path>
                            <path d="M35.3333333,22.3333333 L32,22.3333333 L32,23.6666667 L35.3333333,23.6666667 L35.3333333,27 L36.6666667,27 L36.6666667,23.6666667 L40,23.6666667 L40,22.3333333 L36.6666667,22.3333333 L36.6666667,19 L35.3333333,19 L35.3333333,22.3333333 Z" id="Combined-Shape" fill="#fff733"></path>
                            <path d="M40,42 L10,42 L10,40.9384819 L13.5986667,40.9384819 L13.5866667,40.9384819 L24.748,21.7842557 L23.416,19.4184641 L24.197,19 L25.2836667,20.8637669 L26.4083333,19 L27.212,19.6020994 L25.881,21.8869726 L36.9806667,40.9381516 L36.993,40.9381516 L40,40.9381516 L40,42 L40,42 Z M30.0236667,40.9384819 L25.267,32.7752951 L20.5103333,40.9384819 L30.0236667,40.9384819 L30.0236667,40.9384819 Z" id="Shape" fill="#fff733"></path>
                        </g>
                    </g>
                </g>
            </g>
        </g>
    </g>
</svg>