<?xml version="1.0" encoding="UTF-8"?>
<svg width="50px" height="71px" viewBox="0 0 50 71" version="1.1" xmlns="http://www.w3.org/2000/svg" xmlns:xlink="http://www.w3.org/1999/xlink">
    <!-- Generator: sketchtool 40.3 (33839) - http://www.bohemiancoding.com/sketch -->
    <title>60C34FB6-939B-4368-8192-94C6465A63AE</title>
    <desc>Created with sketchtool.</desc>
    <defs></defs>
    <g id="Page-1" stroke="none" stroke-width="1" fill="none" fill-rule="evenodd">
        <g id="EC---ticket-shop-V9" transform="translate(-1100.000000, -219.000000)">
            <g id="Tickets" transform="translate(-131.000000, 219.000000)">
                <g id="Ticket--Copy" transform="translate(861.000000, 0.000000)">
                    <g id="Icon-Copy" transform="translate(370.000000, 0.000000)">
                        <g id="icon_ribbon_vipstar-copy-2">
                            <path d="M0,4.24987387 L0,67.4952069 C0,70.2922494 3.70734908,71.959452 6.47965879,70.4024777 L22.6870079,61.3224235 C24.097769,60.537047 25.9186352,60.537047 27.3129921,61.3224235 L43.5203412,70.4024777 C46.2926509,71.9456735 50,70.2784708 50,67.4952069 L50,4.24987387 L50,1.20792265e-13 L0,1.20792265e-13 L0,4.24987387 Z" id="Ribbon" fill="#fff733" opacity="1"></path>
                            <path d="M38.0869565,43 L12,43 L12,42.0769408 L15.1292754,42.0769408 L15.1188406,42.0769408 L24.8243478,25.4210919 L23.666087,23.3638818 L24.3452174,23 L25.2901449,24.6206669 L26.2681159,23 L26.9669565,23.5235647 L25.8095652,25.510411 L35.4614493,42.0766536 L35.4721739,42.0766536 L38.0869565,42.0766536 L38.0869565,43 L38.0869565,43 Z M29.4118841,42.0769408 L25.2756522,34.9785175 L21.1394203,42.0769408 L29.4118841,42.0769408 L29.4118841,42.0769408 Z" id="Shape" fill="#333333"></path>
                        </g>
                    </g>
                </g>
            </g>
        </g>
    </g>
</svg>