<?xml version="1.0" encoding="UTF-8"?>
<svg width="50px" height="71px" viewBox="0 0 50 71" version="1.1" xmlns="http://www.w3.org/2000/svg" xmlns:xlink="http://www.w3.org/1999/xlink">
    <!-- Generator: sketchtool 40.3 (33839) - http://www.bohemiancoding.com/sketch -->
    <title>46523D4F-CE8F-431A-B118-A386CD082707</title>
    <desc>Created with sketchtool.</desc>
    <defs></defs>
    <g id="Page-1" stroke="none" stroke-width="1" fill="none" fill-rule="evenodd">
        <g id="EC---ticket-shop-V6" transform="translate(-640.000000, -740.000000)">
            <g id="Tickets" transform="translate(269.000000, 140.000000)">
                <g id="Ticket--Copy-2" transform="translate(1.000000, 600.000000)">
                    <g id="Icon" transform="translate(370.000000, 0.000000)">
                        <g id="icon_ribbon_vipstar">
                            <path d="M0,4.24987387 L0,67.4952069 C0,70.2922494 3.70734908,71.959452 6.47965879,70.4024777 L22.6870079,61.3224235 C24.097769,60.537047 25.9186352,60.537047 27.3129921,61.3224235 L43.5203412,70.4024777 C46.2926509,71.9456735 50,70.2784708 50,67.4952069 L50,4.24987387 L50,1.0658141e-13 L0,1.0658141e-13 L0,4.24987387 Z" id="Ribbon" fill="#fff733" opacity="1"></path>
                            <path d="M34.924,29.618 C34.77,29.245 34.404,29.001 34,29.001 L28.618,29.001 L25.894,23.554 C25.555,22.877 24.444,22.877 24.105,23.554 L21.382,29.001 L16,29.001 C15.596,29.001 15.23,29.245 15.076,29.618 C14.922,29.991 15.007,30.423 15.293,30.708 L19.877,35.292 L18.039,41.727 C17.924,42.13 18.072,42.562 18.41,42.809 C18.75,43.057 19.207,43.066 19.554,42.833 L25,39.203 L30.445,42.833 C30.613,42.945 30.806,43.001 31,43.001 C31.207,43.001 31.414,42.937 31.59,42.809 C31.928,42.562 32.076,42.13 31.961,41.727 L30.123,35.292 L34.707,30.708 C34.993,30.423 35.078,29.991 34.924,29.618 L34.924,29.618 Z" id="Shape" fill="#333333"></path>
                        </g>
                    </g>
                </g>
            </g>
        </g>
    </g>
</svg>