<?xml version="1.0" standalone="no"?>
<!-- Generator: Adobe Fireworks 10, Export SVG Extension by Aaron Beall (http://fireworks.abeall.com) . Version: 0.6.1  -->
<!DOCTYPE svg PUBLIC "-//W3C//DTD SVG 1.1//EN" "http://www.w3.org/Graphics/SVG/1.1/DTD/svg11.dtd">
<svg id="Untitled-Page%201" viewBox="0 0 53 50" style="background-color:#ffffff00" version="1.1"
	xmlns="http://www.w3.org/2000/svg" xmlns:xlink="http://www.w3.org/1999/xlink" xml:space="preserve"
	x="0px" y="0px" width="53px" height="50px"
>
	<g id="Layer%201">
		<g>
			<rect x="0" y="0" width="53" height="50" fill="#ffff00"/>
			<g>
				<path d="M 47.3646 33.1265 L 47.3646 29.0273 L 39.5965 29.0273 L 39.5965 33.1265 C 39.5965 34.6363 38.3689 35.8606 36.8549 35.8606 C 35.3397 35.8606 34.1121 34.6363 34.1121 33.1265 L 34.1121 16.7273 C 34.1121 15.2176 35.3397 13.9933 36.8549 13.9933 C 38.3689 13.9933 39.5965 15.2176 39.5965 16.7273 L 39.5965 20.8278 L 47.3646 20.8278 L 47.3646 16.7273 C 47.3646 10.9501 42.6513 6.25 36.8549 6.25 C 31.0585 6.25 26.344 10.9501 26.344 16.7273 L 26.344 33.1265 C 26.344 38.9032 31.0585 43.6039 36.8549 43.6039 C 42.6513 43.6039 47.3646 38.9032 47.3646 33.1265 ZM 36.8549 42.7218 C 31.5468 42.7218 27.2288 38.4177 27.2288 33.1265 L 27.2288 16.7273 C 27.2288 11.4362 31.5468 7.1327 36.8549 7.1327 C 42.1612 7.1327 46.4809 11.4362 46.4809 16.7273 L 46.4809 19.9451 L 40.4814 19.9451 L 40.4814 16.7273 C 40.4814 14.7351 38.8536 13.1131 36.8549 13.1131 C 34.8539 13.1131 33.2278 14.7351 33.2278 16.7273 L 33.2278 33.1265 C 33.2278 35.1206 34.8539 36.7421 36.8549 36.7421 C 38.8536 36.7421 40.4814 35.1206 40.4814 33.1265 L 40.4814 29.9088 L 46.4809 29.9088 L 46.4809 33.1265 C 46.4809 38.4177 42.1612 42.7218 36.8549 42.7218 Z" fill="#000000"/>
				<path d="M 23.3035 35.9197 L 14.164 35.9197 L 14.164 28.6315 L 21.475 28.6315 L 21.475 21.3419 L 14.164 21.3419 L 14.164 14.0537 L 23.3035 14.0537 L 22.3892 6.7643 L 14.164 6.7643 L 6.8505 6.7643 L 6.8505 6.7643 L 6.8505 43.208 L 6.8505 43.208 L 14.164 43.208 L 22.3892 43.208 L 23.3035 35.9197 ZM 21.6072 42.3266 L 7.736 42.3266 L 7.736 7.6463 L 21.6072 7.6463 L 22.3011 13.1711 L 13.2785 13.1711 L 13.2785 22.2247 L 20.5901 22.2247 L 20.5901 27.7488 L 13.2785 27.7488 L 13.2785 36.8018 L 22.3011 36.8018 L 21.6072 42.3266 Z" fill="#000000"/>
				<path d="M 16.6773 24.9855 C 16.6773 24.3566 17.1889 23.8472 17.8192 23.8472 C 18.4507 23.8472 18.9624 24.3566 18.9624 24.9855 C 18.9624 25.6156 18.4507 26.1237 17.8192 26.1237 C 17.1889 26.1237 16.6773 25.6156 16.6773 24.9855 Z" fill="#000000"/>
				<path d="M 11.6507 17.8113 C 11.6507 18.4415 11.1391 18.9496 10.5076 18.9496 C 9.8772 18.9496 9.3656 18.4415 9.3656 17.8113 C 9.3656 17.1818 9.8772 16.6718 10.5076 16.6718 C 11.1391 16.6718 11.6507 17.1818 11.6507 17.8113 Z" fill="#000000"/>
				<path d="M 11.6507 10.6365 C 11.6507 11.2673 11.1391 11.7772 10.5076 11.7772 C 9.8772 11.7772 9.3656 11.2673 9.3656 10.6365 C 9.3656 10.0076 9.8772 9.4976 10.5076 9.4976 C 11.1391 9.4976 11.6507 10.0076 11.6507 10.6365 Z" fill="#000000"/>
				<path d="M 17.5916 10.6365 C 17.5916 10.0076 18.1019 9.4976 18.7335 9.4976 C 19.3638 9.4976 19.8754 10.0076 19.8754 10.6365 C 19.8754 11.2673 19.3638 11.7772 18.7335 11.7772 C 18.1019 11.7772 17.5916 11.2673 17.5916 10.6365 Z" fill="#000000"/>
				<path d="M 11.6507 24.9855 C 11.6507 25.6156 11.1391 26.1237 10.5076 26.1237 C 9.8772 26.1237 9.3656 25.6156 9.3656 24.9855 C 9.3656 24.3566 9.8772 23.8472 10.5076 23.8472 C 11.1391 23.8472 11.6507 24.3566 11.6507 24.9855 Z" fill="#000000"/>
				<path d="M 11.6507 32.1603 C 11.6507 32.7911 11.1391 33.301 10.5076 33.301 C 9.8772 33.301 9.3656 32.7911 9.3656 32.1603 C 9.3656 31.532 9.8772 31.022 10.5076 31.022 C 11.1391 31.022 11.6507 31.532 11.6507 32.1603 Z" fill="#000000"/>
				<path d="M 17.5916 39.3376 C 17.5916 38.7062 18.1019 38.1981 18.7335 38.1981 C 19.3638 38.1981 19.8754 38.7062 19.8754 39.3376 C 19.8754 39.9659 19.3638 40.4758 18.7335 40.4758 C 18.1019 40.4758 17.5916 39.9659 17.5916 39.3376 Z" fill="#000000"/>
				<path d="M 11.6507 39.3376 C 11.6507 39.9659 11.1391 40.4758 10.5076 40.4758 C 9.8772 40.4758 9.3644 39.9659 9.3644 39.3376 C 9.3644 38.7062 9.8772 38.1981 10.5076 38.1981 C 11.1391 38.1981 11.6507 38.7062 11.6507 39.3376 Z" fill="#000000"/>
				<path d="M 35.0202 39.3376 C 35.0202 39.9659 34.5087 40.4758 33.8784 40.4758 C 33.2468 40.4758 32.7352 39.9659 32.7352 39.3376 C 32.7352 38.7062 33.2468 38.1981 33.8784 38.1981 C 34.5087 38.1981 35.0202 38.7062 35.0202 39.3376 Z" fill="#000000"/>
				<path d="M 39.5903 10.6365 C 39.5903 10.0076 40.102 9.4976 40.7323 9.4976 C 41.3638 9.4976 41.876 10.0076 41.876 10.6365 C 41.876 11.2673 41.3638 11.7772 40.7323 11.7772 C 40.102 11.7772 39.5903 11.2673 39.5903 10.6365 Z" fill="#000000"/>
				<path d="M 42.3319 16.9006 C 42.3319 16.2723 42.8435 15.7623 43.4738 15.7623 C 44.1054 15.7623 44.6169 16.2723 44.6169 16.9006 C 44.6169 17.5289 44.1054 18.0388 43.4738 18.0388 C 42.8435 18.0388 42.3319 17.5289 42.3319 16.9006 Z" fill="#000000"/>
				<path d="M 31.3669 33.0729 C 31.3669 33.7012 30.8553 34.2111 30.2226 34.2111 C 29.5916 34.2111 29.08 33.7012 29.08 33.0729 C 29.08 32.4433 29.5916 31.9346 30.2226 31.9346 C 30.8553 31.9346 31.3669 32.4433 31.3669 33.0729 Z" fill="#000000"/>
				<path d="M 31.3669 16.9006 C 31.3669 17.5289 30.8553 18.0388 30.2226 18.0388 C 29.5916 18.0388 29.08 17.5289 29.08 16.9006 C 29.08 16.2723 29.5916 15.7623 30.2226 15.7623 C 30.8553 15.7623 31.3669 16.2723 31.3669 16.9006 Z" fill="#000000"/>
				<path d="M 32.7352 10.6365 C 32.7352 10.0076 33.2493 9.4976 33.8802 9.4976 C 34.5105 9.4976 35.0221 10.0076 35.0221 10.6365 C 35.0221 11.2673 34.5105 11.7772 33.8802 11.7772 C 33.2493 11.7772 32.7352 11.2673 32.7352 10.6365 Z" fill="#000000"/>
				<path d="M 31.3669 24.9855 C 31.3669 25.6156 30.8553 26.1237 30.2226 26.1237 C 29.5916 26.1237 29.08 25.6156 29.08 24.9855 C 29.08 24.3566 29.5916 23.8472 30.2226 23.8472 C 30.8553 23.8472 31.3669 24.3566 31.3669 24.9855 Z" fill="#000000"/>
				<path d="M 41.876 39.3376 C 41.876 39.9659 41.3644 40.4758 40.7335 40.4758 C 40.102 40.4758 39.5915 39.9659 39.5915 39.3376 C 39.5915 38.7062 40.102 38.1981 40.7335 38.1981 C 41.3644 38.1981 41.876 38.7062 41.876 39.3376 Z" fill="#000000"/>
				<path d="M 44.6169 33.0729 C 44.6169 33.7012 44.1054 34.2111 43.4738 34.2111 C 42.8435 34.2111 42.3319 33.7012 42.3319 33.0729 C 42.3319 32.4433 42.8435 31.9346 43.4738 31.9346 C 44.1054 31.9346 44.6169 32.4433 44.6169 33.0729 Z" fill="#000000"/>
			</g>
		</g>
	</g>
</svg>