<?xml version="1.0" encoding="utf-8"?>
<!-- Generator: Adobe Illustrator 19.1.1, SVG Export Plug-In . SVG Version: 6.00 Build 0)  -->
<svg version="1.1" id="Layer_1" xmlns="http://www.w3.org/2000/svg" xmlns:xlink="http://www.w3.org/1999/xlink" x="0px" y="0px"
	 viewBox="0 0 114.2 40" style="enable-background:new 0 0 114.2 40;" xml:space="preserve">
<style type="text/css">
	.st0{fill:#FFFF00;}
</style>
<g>
	<g>
		<circle class="st0" cx="78.9" cy="9.1" r="0.9"/>
		<circle class="st0" cx="78.9" cy="14.5" r="0.9"/>
		<circle class="st0" cx="84.4" cy="19.9" r="0.9"/>
		<circle class="st0" cx="85.1" cy="30.6" r="0.9"/>
		<circle class="st0" cx="103.8" cy="25.9" r="0.9"/>
		<circle class="st0" cx="85.1" cy="9.1" r="0.9"/>
		<circle class="st0" cx="78.9" cy="19.9" r="0.9"/>
		<circle class="st0" cx="78.9" cy="30.6" r="0.9"/>
		<circle class="st0" cx="78.9" cy="25.2" r="0.9"/>
		<circle class="st0" cx="96.7" cy="9.1" r="0.9"/>
		<circle class="st0" cx="101.8" cy="9.1" r="0.9"/>
		<circle class="st0" cx="101.8" cy="30.6" r="0.9"/>
		<circle class="st0" cx="103.8" cy="13.8" r="0.9"/>
		<path class="st0" d="M67.6,0v40h46.7V0H67.6z M87.1,17.1l0,5.5l-5.5,0l0,5.5l6.8,0l-0.7,5.5l-6.1,0l-5.5,0l0-27.3l5.5,0l6.1,0
			l0.7,5.5l-6.8,0l0,5.5L87.1,17.1z M106.7,16.8l-5.8,0l0-3.1c0-1.1-0.9-2-2-2c-1.1,0-2,0.9-2,2l0,12.3c0,1.1,0.9,2,2,2
			c1.1,0,2-0.9,2-2l0-3.1l5.8,0l0,3.1c0,4.3-3.5,7.8-7.8,7.8c-4.3,0-7.8-3.5-7.8-7.8l0-12.3c0-4.3,3.5-7.8,7.8-7.8
			c4.3,0,7.8,3.5,7.8,7.8L106.7,16.8z"/>
		<circle class="st0" cx="96.7" cy="30.6" r="0.9"/>
		<circle class="st0" cx="93.9" cy="13.8" r="0.9"/>
		<circle class="st0" cx="93.9" cy="25.9" r="0.9"/>
		<circle class="st0" cx="93.9" cy="19.9" r="0.9"/>
	</g>
	<g>
		<path class="st0" d="M67.6,40H0V0h67.6V40z M0.6,39.4H67V0.6H0.6V39.4z"/>
		<g>
			<path class="st0" d="M6.9,23.1H5.5v-4.8h1.4c0.8,0,1.1,0.4,1.1,1.1v0.4c0,0.5-0.2,0.8-0.6,0.9C7.8,20.7,8,21,8,21.5V22
				C8,22.7,7.7,23.1,6.9,23.1z M7.3,19.3c0-0.3-0.1-0.5-0.4-0.5H6.2v1.5h0.6c0.3,0,0.5-0.2,0.5-0.5V19.3z M7.3,21.5
				c0-0.4-0.2-0.5-0.5-0.5H6.2v1.6h0.7c0.3,0,0.4-0.2,0.4-0.5V21.5z"/>
			<path class="st0" d="M10.8,23.1l-0.3-1.2h-1l-0.3,1.2H8.5l1.1-4.8h0.7l1.1,4.8H10.8z M10,19.3l-0.4,2h0.8L10,19.3z M10.2,18H9.8
				l0.3-1h0.6L10.2,18z"/>
			<path class="st0" d="M14.3,23.1l-1.2-2.4l-0.4-0.8v3.2h-0.7v-4.8h0.6l1.1,2.4l0.4,0.8v-3.2h0.7v4.8H14.3z"/>
			<path class="st0" d="M16.5,18.9v1.5h1.2V21h-1.2v2.1h-0.7v-4.8H18v0.6H16.5z"/>
			<path class="st0" d="M19.4,18.9v1.5h1.2V21h-1.2v2.1h-0.7v-4.8h2.2v0.6H19.4z"/>
			<path class="st0" d="M23,21.2v1.9h-0.7v-1.9l-1.2-2.9h0.7l0.8,2.2l0.8-2.2h0.7L23,21.2z"/>
			<path class="st0" d="M27.4,23.2c-0.9,0-1.3-0.6-1.3-1.3v-2.4c0-0.7,0.4-1.3,1.3-1.3c0.9,0,1.3,0.6,1.3,1.3V20h-0.6v-0.5
				c0-0.4-0.2-0.7-0.7-0.7c-0.5,0-0.7,0.3-0.7,0.6v2.5c0,0.4,0.2,0.6,0.7,0.6c0.5,0,0.7-0.3,0.7-0.7v-0.5h0.6v0.5
				C28.7,22.6,28.3,23.2,27.4,23.2z"/>
			<path class="st0" d="M31.4,23.1l-0.3-1.2h-1l-0.3,1.2h-0.7l1.1-4.8H31l1.1,4.8H31.4z M30.6,19.3l-0.4,2H31L30.6,19.3z"/>
			<path class="st0" d="M33.8,23.2c-0.8,0-1.3-0.5-1.3-1.2v-0.3h0.7v0.2c0,0.5,0.2,0.7,0.7,0.7c0.4,0,0.6-0.3,0.6-0.6
				c0-0.4-0.2-0.7-0.8-1.1c-0.5-0.3-1.1-0.8-1.1-1.5c0-0.7,0.5-1.2,1.3-1.2c0.8,0,1.3,0.5,1.3,1.2v0.3h-0.7v-0.2
				c0-0.4-0.2-0.7-0.7-0.7c-0.4,0-0.6,0.2-0.6,0.6c0,0.4,0.2,0.7,0.9,1.1c0.7,0.5,1,0.9,1,1.5C35.2,22.7,34.6,23.2,33.8,23.2z"/>
			<path class="st0" d="M37.3,18.9v4.2h-0.7v-4.2h-1v-0.6h2.7v0.6H37.3z"/>
			<path class="st0" d="M39,23.1v-4.8h0.7v4.2h1.5v0.6H39z"/>
			<path class="st0" d="M41.9,23.1v-4.8h2.2v0.6h-1.6v1.4h1.1v0.6h-1.1v1.6h1.6v0.6H41.9z"/>
			<path class="st0" d="M47,21.5c-0.5,0-0.8-0.3-0.8-0.9c0-0.5,0.4-0.9,0.8-0.9c0.5,0,0.8,0.3,0.8,0.9C47.8,21.2,47.4,21.5,47,21.5z
				"/>
			<path class="st0" d="M51.3,23.2c-0.9,0-1.4-0.6-1.4-1.3v-2.4c0-0.7,0.4-1.3,1.4-1.3c0.9,0,1.3,0.6,1.3,1.3V20H52v-0.5
				c0-0.4-0.2-0.7-0.7-0.7c-0.5,0-0.7,0.3-0.7,0.6v2.5c0,0.4,0.2,0.6,0.7,0.6c0.4,0,0.7-0.3,0.7-0.7v-0.5h0.6v0.5
				C52.6,22.6,52.2,23.2,51.3,23.2z"/>
			<path class="st0" d="M53.4,23.1v-4.8h0.7v4.2h1.5v0.6H53.4z"/>
			<path class="st0" d="M57.5,23.2c-0.8,0-1.3-0.5-1.3-1.3v-3.7h0.7v3.7c0,0.4,0.2,0.7,0.7,0.7c0.4,0,0.7-0.2,0.7-0.7v-3.7h0.7v3.7
				C58.9,22.7,58.3,23.2,57.5,23.2z"/>
			<path class="st0" d="M60.9,23.2c-0.8,0-1.3-0.5-1.3-1.3v-0.8h0.6v0.7c0,0.4,0.2,0.7,0.6,0.7c0.4,0,0.6-0.2,0.6-0.7v-3.7h0.7v3.6
				C62.1,22.6,61.8,23.2,60.9,23.2z"/>
		</g>
		<g>
			<path class="st0" d="M12.3,35.6h-0.7L11,32.3l-0.7,3.3H9.7l-0.8-4.8h0.7l0.5,3.6l0.7-3.6h0.6l0.6,3.6l0.5-3.6h0.7L12.3,35.6z"/>
			<path class="st0" d="M13.8,35.6v-4.8h2.2v0.6h-1.6v1.4h1.1v0.6h-1.1V35h1.6v0.6H13.8z"/>
			<path class="st0" d="M20.1,35.6l-0.3-1.2h-1l-0.3,1.2h-0.7l1.1-4.8h0.7l1.1,4.8H20.1z M19.3,31.8l-0.4,2h0.8L19.3,31.8z"/>
			<path class="st0" d="M24,35.6c-0.5,0-0.7-0.2-0.7-0.7V34c0-0.3-0.2-0.6-0.5-0.6h-0.7v2.1h-0.7v-4.8h1.4c0.8,0,1.1,0.4,1.1,1.1
				v0.5c0,0.5-0.2,0.8-0.6,0.8c0.5,0.1,0.6,0.5,0.6,0.8v0.9c0,0.1,0.1,0.2,0.2,0.2v0.5H24z M23.3,31.8c0-0.3-0.1-0.5-0.4-0.5h-0.7
				V33h0.6c0.3,0,0.5-0.2,0.5-0.6V31.8z"/>
			<path class="st0" d="M24.9,35.6v-4.8h2.2v0.6h-1.6v1.4h1.1v0.6h-1.1V35h1.6v0.6H24.9z"/>
			<path class="st0" d="M30.7,31.4v4.2H30v-4.2h-1v-0.6h2.7v0.6H30.7z"/>
			<path class="st0" d="M34.4,35.6v-2.1H33v2.1h-0.7v-4.8H33v2.1h1.4v-2.1h0.7v4.8H34.4z"/>
			<path class="st0" d="M36,35.6v-4.8h2.2v0.6h-1.6v1.4h1.1v0.6h-1.1V35h1.6v0.6H36z"/>
			<path class="st0" d="M41.8,33.6h-0.7v1.9h-0.7v-4.8h1.4c0.8,0,1.1,0.4,1.1,1.1v0.7C43,33.2,42.6,33.6,41.8,33.6z M42.3,31.8
				c0-0.3-0.1-0.5-0.4-0.5h-0.7v1.7h0.7c0.3,0,0.4-0.2,0.4-0.5V31.8z"/>
			<path class="st0" d="M43.7,35.6v-4.8H46v0.6h-1.6v1.4h1.1v0.6h-1.1V35H46v0.6H43.7z"/>
			<path class="st0" d="M48,35.7c-0.9,0-1.3-0.6-1.3-1.4V32c0-0.8,0.4-1.4,1.3-1.4c0.9,0,1.3,0.6,1.3,1.4v2.3
				C49.4,35.1,49,35.7,48,35.7z M48.7,32c0-0.4-0.2-0.7-0.7-0.7s-0.7,0.3-0.7,0.7v2.4c0,0.4,0.2,0.7,0.7,0.7s0.7-0.3,0.7-0.7V32z"/>
			<path class="st0" d="M51.7,33.6H51v1.9h-0.7v-4.8h1.4c0.8,0,1.1,0.4,1.1,1.1v0.7C52.8,33.2,52.5,33.6,51.7,33.6z M52.1,31.8
				c0-0.3-0.1-0.5-0.4-0.5H51v1.7h0.7c0.3,0,0.4-0.2,0.4-0.5V31.8z"/>
			<path class="st0" d="M53.6,35.6v-4.8h0.7V35h1.5v0.6H53.6z"/>
			<path class="st0" d="M56.5,35.6v-4.8h2.2v0.6h-1.6v1.4h1.1v0.6h-1.1V35h1.6v0.6H56.5z"/>
		</g>
		<rect x="0.3" y="13.8" class="st0" width="66.8" height="0.6"/>
		<rect x="0.3" y="26.7" class="st0" width="66.8" height="0.6"/>
		<g>
			<path class="st0" d="M14.8,9.9c-0.9,0-1.3-0.5-1.3-1.3V7.8h0.7v0.8c0,0.5,0.2,0.7,0.6,0.7c0.4,0,0.6-0.2,0.6-0.7V4.8h0.7v3.7
				C16.1,9.4,15.7,9.9,14.8,9.9z"/>
			<path class="st0" d="M18.4,9.9c-0.8,0-1.4-0.5-1.4-1.3V4.8h0.7v3.8c0,0.4,0.2,0.7,0.7,0.7c0.5,0,0.7-0.2,0.7-0.7V4.8h0.7v3.8
				C19.8,9.5,19.2,9.9,18.4,9.9z"/>
			<path class="st0" d="M20.8,9.8v-5h0.7v4.4h1.6v0.6H20.8z"/>
			<path class="st0" d="M24.9,7.8v2h-0.7v-2l-1.2-3h0.8l0.8,2.3l0.8-2.3h0.7L24.9,7.8z"/>
			<path class="st0" d="M28.1,9.8V5.1c0.2,0,0.3-0.2,0.3-0.3h0.4v5H28.1z"/>
			<path class="st0" d="M30.9,9.9c-0.8,0-1.2-0.5-1.2-1.2V8.3h0.6v0.4c0,0.5,0.2,0.7,0.6,0.7c0.4,0,0.6-0.2,0.6-0.6V8
				c0-0.2-0.1-0.5-0.5-0.5h-0.4V7H31c0.4,0,0.5-0.2,0.5-0.5V5.9c0-0.4-0.2-0.7-0.6-0.7c-0.4,0-0.6,0.2-0.6,0.7v0.4h-0.6V5.9
				c0-0.7,0.4-1.2,1.2-1.2c0.8,0,1.3,0.5,1.3,1.2v0.5c0,0.4-0.2,0.8-0.6,0.8C32,7.3,32.2,7.6,32.2,8v0.7C32.2,9.5,31.8,9.9,30.9,9.9
				z"/>
			<path class="st0" d="M32.9,7.8V7.2h1.6v0.6H32.9z"/>
			<path class="st0" d="M35.4,9.8V5.1c0.2,0,0.3-0.2,0.3-0.3H36v5H35.4z"/>
			<path class="st0" d="M38.4,9.9c-0.8,0-1.3-0.5-1.3-1.3V6c0-0.8,0.5-1.3,1.3-1.3c0.8,0,1.2,0.6,1.2,1.2v0.3H39V6
				c0-0.5-0.2-0.7-0.7-0.7c-0.4,0-0.6,0.3-0.6,0.7v1.2c0.2-0.2,0.5-0.4,1-0.4c0.6,0,1,0.4,1,1v0.9C39.7,9.4,39.2,9.9,38.4,9.9z
				 M39,7.9c0-0.4-0.2-0.6-0.6-0.6c-0.4,0-0.7,0.3-0.7,0.6v0.8c0,0.4,0.3,0.7,0.6,0.7c0.4,0,0.6-0.3,0.6-0.6V7.9z"/>
			<path class="st0" d="M40.3,10.5v-0.2c0.3,0,0.4-0.2,0.4-0.5h-0.3V9h0.6v0.8C41.1,10.2,40.9,10.5,40.3,10.5z"/>
			<path class="st0" d="M44.6,7.8c-0.5,0.5-0.7,1-0.7,1.4h1.8v0.6h-2.5V9.6c0-0.7,0.2-1.3,1.1-2.2c0.6-0.6,0.9-0.9,0.9-1.4
				c0-0.4-0.2-0.7-0.6-0.7c-0.4,0-0.6,0.2-0.6,0.7v0.5h-0.6V6c0-0.7,0.4-1.3,1.2-1.3c0.9,0,1.3,0.6,1.3,1.3
				C45.8,6.6,45.4,7.2,44.6,7.8z"/>
			<path class="st0" d="M47.8,9.9c-0.8,0-1.3-0.5-1.3-1.3V6c0-0.8,0.5-1.3,1.3-1.3c0.8,0,1.3,0.5,1.3,1.3v2.6
				C49.1,9.4,48.6,9.9,47.8,9.9z M48.5,5.9c0-0.3-0.2-0.6-0.7-0.6c-0.4,0-0.7,0.3-0.7,0.6v2.8c0,0.3,0.3,0.6,0.7,0.6
				c0.4,0,0.7-0.3,0.7-0.6V5.9z"/>
			<path class="st0" d="M50.1,9.8V5.1c0.2,0,0.3-0.2,0.3-0.3h0.4v5H50.1z"/>
			<path class="st0" d="M52.8,9.8h-0.7c0-1.4,0.7-3,1.4-4.4h-1.9V4.8h2.6v0.4C53.4,7,52.9,8.2,52.8,9.8z"/>
		</g>
	</g>
</g>
</svg>
