<?xml version="1.0" ?><!DOCTYPE svg  PUBLIC '-//W3C//DTD SVG 1.1//EN'  'http://www.w3.org/Graphics/SVG/1.1/DTD/svg11.dtd'><svg enable-background="new 0 0 64 64" height="64px" id="Layer_1" version="1.1" viewBox="0 0 64 64" width="64px" xml:space="preserve" xmlns="http://www.w3.org/2000/svg" xmlns:xlink="http://www.w3.org/1999/xlink"><path d="M62.479,36.622h-0.236c-1.476,0-1.6,1.4-1.606,1.765v2.483c0,0.76-0.717,0.071-0.777,0.011l-5.515-5.454  L33.021,13.994H33.02c-1.082-1.086-2.137-0.018-2.153-0.001l-22.414,22.3l-0.001,0.002l-0.27,0.269  c-0.063,0.071-0.134,0.164-0.205,0.26l-3.791,3.751c-0.812,0.802-0.823-0.002-0.823-0.002v-2.402c0-1.412-1.019-1.541-1.339-1.547  H1.664c0,0-1.602-0.031-1.602,1.594v2.857v3.579v3.854c0,0,0,1.984,1.484,1.984H1.88c0.311-0.009,1.484-0.163,1.484-2.005v-1.696  c0-1.577,0.745-2.289,0.745-2.289l2.686-2.656c0.127-0.119,0.577-0.508,0.577,0.032v6.856c0.007,0.433,0.165,1.758,1.821,1.758  h11.235h0.601c1.968,0,2.48-1.457,2.502-1.525l7.917-22.638h0.001c0,0,0.493-1.091,0.885,0c0,0.003,0,0.003,0.001,0.004l8.03,22.424  c0,0,0.542,1.735,2.797,1.735h0.174h11.062c1.815,0,1.992-1.338,2.002-1.787v-6.012c0,0,0.095-1.285,1.393-0.002l2.142,2.12  c0,0,0.701,0.708,0.701,1.815v2.322c0.006,0.358,0.124,1.543,1.465,1.543h0.094c1.743,0.097,1.743-2.193,1.743-2.193v-1.045v-2.333  v-6.255C63.938,36.806,62.835,36.631,62.479,36.622z" fill="#241F20"/></svg>